<?xml version="1.0" encoding="utf-8"?>
<!-- Generator: Adobe Illustrator 27.4.0, SVG Export Plug-In . SVG Version: 6.00 Build 0)  -->
<svg version="1.1" id="Layer_1" xmlns="http://www.w3.org/2000/svg" xmlns:xlink="http://www.w3.org/1999/xlink" x="0px" y="0px"
	 viewBox="0 0 7532 2668" style="enable-background:new 0 0 7532 2668;" xml:space="preserve">
<style type="text/css">
	.st0{fill:#FFFFFF;}
	.st1{fill:url(#SVGID_1_);}
</style>
<g id="Layer_2_00000138546222826435025280000000343424408184885430_">
	<rect y="0" class="st0" width="7532" height="2668"/>
</g>
<linearGradient id="SVGID_1_" gradientUnits="userSpaceOnUse" x1="1201.5575" y1="1499.2141" x2="2147.1775" y2="937.4641" gradientTransform="matrix(1 0 0 -1 0 2669.2283)">
	<stop  offset="0" style="stop-color:#FF6BF7"/>
	<stop  offset="0.15" style="stop-color:#F361F3"/>
	<stop  offset="0.41" style="stop-color:#D648E9"/>
	<stop  offset="0.75" style="stop-color:#A621D9"/>
	<stop  offset="1" style="stop-color:#7F00CC"/>
</linearGradient>
<path class="st1" d="M1739.1,862.3l466.3,807.7c32.1,55.7-8,125.2-72.3,125.2h-932.7c-64.3,0-104.4-69.6-72.3-125.2l466.3-807.7
	C1626.6,806.6,1706.9,806.6,1739.1,862.3L1739.1,862.3z"/>
<path class="st0" d="M1606.3,1426h552.3c28.9,0,52.3,23.4,52.3,52.3v0c0,28.9-23.4,52.3-52.3,52.3h-552.3
	c-28.9,0-52.3-23.4-52.3-52.3v0C1554,1449.4,1577.4,1426,1606.3,1426z"/>
<rect x="1046.9" y="1291.6" transform="matrix(0.4695 -0.8829 0.8829 0.4695 -321.4177 2162.9932)" class="st0" width="1184.5" height="114.8"/>
<g>
	<path d="M2371.5,1499v-2l132-334.5h40.5l132,334.5v2h-34l-35.5-91.5h-165l-36,91.5H2371.5z M2452,1379.5h143.5L2524,1195
		L2452,1379.5z"/>
	<path d="M2714.5,1499v-259h31v52.5c6.7-17.7,16.6-31.8,29.8-42.5c13.2-10.7,28.6-16,46.2-16c11.3,0,20.3,2,27,6v26.5h-2
		c-6-2.3-13.5-3.5-22.5-3.5c-25,0-44.3,9.2-58,27.8c-13.7,18.5-20.5,41.8-20.5,69.8V1499H2714.5z"/>
	<path d="M2892,1499v-259h31v43c7-15.3,17.6-27.3,31.8-36c14.2-8.7,30.2-13,48.2-13c20,0,36.9,5,50.8,15
		c13.8,10,23.6,24.2,29.2,42.5c6.7-18.3,17.5-32.5,32.5-42.5s32.8-15,53.5-15c29,0,50.7,9.2,65,27.8c14.3,18.5,21.5,43.4,21.5,74.8
		V1499h-31v-155c0-54.7-21.8-82-65.5-82c-22.3,0-39.6,7.7-51.8,23c-12.2,15.3-18.2,35-18.2,59v155h-31v-155c0-54.7-21.8-82-65.5-82
		c-22.3,0-39.5,7.7-51.5,23c-12,15.3-18,35-18,59v155H2892z"/>
	<path d="M3430.5,1505.5c-37,0-67.1-13-90.2-39c-23.2-26-34.8-58.3-34.8-97s11.6-70.9,34.8-96.8c23.2-25.8,53.2-38.8,90.2-38.8
		s67.6,12.9,90.8,38.8c23.2,25.8,34.8,58.1,34.8,96.8s-11.6,71-34.8,97C3498.1,1492.5,3467.8,1505.5,3430.5,1505.5z M3430.5,1477
		c28.7,0,51.6-10.3,68.8-31c17.2-20.7,25.8-46.2,25.8-76.5s-8.6-55.8-25.8-76.5c-17.2-20.7-40.1-31-68.8-31s-51.1,10.3-68.2,31
		c-17.2,20.7-25.8,46.2-25.8,76.5s8.6,55.8,25.8,76.5C3379.4,1466.7,3402.1,1477,3430.5,1477z"/>
	<path d="M3703,1505c-35,0-62.4-13-82.2-39c-19.8-26-29.8-58.2-29.8-96.5s9.9-70.5,29.8-96.5c19.8-26,47.2-39,82.2-39
		c21,0,39.7,5.4,56,16.2c16.3,10.8,28.8,25.6,37.5,44.2V1152h31v347h-31v-54c-8.7,18.7-21.2,33.3-37.5,44
		C3742.6,1499.6,3724,1505,3703,1505z M3708.5,1477c28,0,50-10.3,66-31c16-20.7,24-46.2,24-76.5s-8-55.8-24-76.5
		c-16-20.7-38-31-66-31s-48.6,10.3-63.8,31c-15.2,20.7-22.8,46.2-22.8,76.5s7.6,55.8,22.8,76.5
		C3659.9,1466.7,3681.1,1477,3708.5,1477z"/>
	<path d="M3912.5,1208c-6.3,0-11.7-2.1-16-6.2c-4.3-4.2-6.5-9.4-6.5-15.8s2.2-11.7,6.5-16s9.7-6.5,16-6.5c6.7,0,12.2,2.2,16.5,6.5
		c4.3,4.3,6.5,9.7,6.5,16s-2.2,11.6-6.5,15.8C3924.6,1205.9,3919.1,1208,3912.5,1208z M3897.5,1499v-259h31v259H3897.5z"/>
	<path d="M4092.5,1505c-35,0-62.4-13-82.2-39c-19.8-26-29.8-58.2-29.8-96.5s9.9-70.5,29.8-96.5c19.8-26,47.2-39,82.2-39
		c21,0,39.7,5.4,56,16.2c16.3,10.8,28.8,25.6,37.5,44.2V1240h31v259h-31v-54c-8.7,18.7-21.2,33.3-37.5,44
		C4132.1,1499.6,4113.5,1505,4092.5,1505z M4098,1477c28,0,50-10.3,66-31c16-20.7,24-46.2,24-76.5s-8-55.8-24-76.5
		c-16-20.7-38-31-66-31s-48.6,10.3-63.8,31c-15.2,20.7-22.8,46.2-22.8,76.5s7.6,55.8,22.8,76.5C4049.4,1466.7,4070.6,1477,4098,1477
		z"/>
	<path d="M4502,1505.5c-43.7,0-80.8-10.7-111.5-32v-32h2c30.7,22.7,68,34,112,34c24.3,0,45.2-5.4,62.5-16.2
		c17.3-10.8,26-26.6,26-47.2c0-28.7-21-48.7-63-60l-57-15c-24.7-6.7-44.3-17.3-59-32c-14.7-14.7-22-33.3-22-56c0-30,11.1-53,33.2-69
		c22.2-16,49.9-24,83.2-24c42,0,77,10.5,105,31.5v32h-2c-28-22.3-63.2-33.5-105.5-33.5c-22.7,0-41.8,5.3-57.5,16
		c-15.7,10.7-23.5,26-23.5,46c0,29,20.3,49,61,60l56.5,15c25.3,6.7,45.6,17.3,60.8,32c15.2,14.7,22.8,33.3,22.8,56
		c0,30-12.2,53.2-36.5,69.8C4565.1,1497.2,4536,1505.5,4502,1505.5z"/>
	<path d="M4687.5,1576.5v-2l65-122.5L4641,1242v-2h35l93.5,180.5L4865,1240h34v2l-177.5,334.5H4687.5z"/>
	<path d="M5009,1505.5c-35.7,0-65.5-10-89.5-30V1445h2c23,21.3,52.2,32,87.5,32c19,0,34.8-3.7,47.2-11c12.5-7.3,18.8-18.8,18.8-34.5
		c0-12.3-4-21.7-12-28c-8-6.3-19.2-11.5-33.5-15.5l-44.5-11.5c-44.7-12-67-35.2-67-69.5c0-23.7,8.8-41.8,26.2-54.2
		s39.4-18.8,65.8-18.8c34.3,0,62.8,10,85.5,30v30h-2c-10.3-10-23.1-17.8-38.2-23.5c-15.2-5.7-30.2-8.5-45.2-8.5
		c-17.7,0-32.2,3.5-43.8,10.5s-17.2,18-17.2,33c0,12,3.8,21.1,11.2,27.2c7.5,6.2,18.8,11.2,33.8,15.2l44.5,12
		c45,12,67.5,35.5,67.5,70.5c0,24.7-9.2,43.3-27.5,56C5060.1,1499.1,5037,1505.5,5009,1505.5z"/>
	<path d="M5186,1499v-232.5h-58.5V1240h58.5v-69h31v69h75v26.5h-75V1499H5186z"/>
	<path d="M5428,1505.5c-38.3,0-68.8-12.8-91.2-38.2s-33.8-58.1-33.8-97.8s10.8-71.3,32.5-97c21.7-25.7,50.8-38.5,87.5-38.5
		s63.9,11.6,82.8,34.8c18.8,23.2,28.2,54.2,28.2,93.2c0,6-0.3,12.3-1,19h-199c1,29,10.2,52.2,27.8,69.8s40.8,26.2,69.8,26.2
		c38.3,0,69.2-10.7,92.5-32h2v30.5C5501.3,1495.5,5468.6,1505.5,5428,1505.5z M5334,1354.5h169.5c0-29-6.7-51.8-20-68.2
		c-13.3-16.5-33.5-24.8-60.5-24.8s-47.3,8.6-63,25.8C5344.3,1304.4,5335.6,1326.8,5334,1354.5z"/>
	<path d="M5589,1499v-259h31v43c7-15.3,17.6-27.3,31.8-36c14.2-8.7,30.2-13,48.2-13c20,0,36.9,5,50.8,15
		c13.8,10,23.6,24.2,29.2,42.5c6.7-18.3,17.5-32.5,32.5-42.5s32.8-15,53.5-15c29,0,50.7,9.2,65,27.8c14.3,18.5,21.5,43.4,21.5,74.8
		V1499h-31v-155c0-54.7-21.8-82-65.5-82c-22.3,0-39.6,7.7-51.8,23c-12.2,15.3-18.2,35-18.2,59v155h-31v-155c0-54.7-21.8-82-65.5-82
		c-22.3,0-39.5,7.7-51.5,23c-12,15.3-18,35-18,59v155H5589z"/>
	<path d="M6099,1505.5c-35.7,0-65.5-10-89.5-30V1445h2c23,21.3,52.2,32,87.5,32c19,0,34.8-3.7,47.2-11c12.5-7.3,18.8-18.8,18.8-34.5
		c0-12.3-4-21.7-12-28c-8-6.3-19.2-11.5-33.5-15.5l-44.5-11.5c-44.7-12-67-35.2-67-69.5c0-23.7,8.8-41.8,26.2-54.2
		s39.4-18.8,65.8-18.8c34.3,0,62.8,10,85.5,30v30h-2c-10.3-10-23.1-17.8-38.2-23.5c-15.2-5.7-30.2-8.5-45.2-8.5
		c-17.7,0-32.2,3.5-43.8,10.5s-17.2,18-17.2,33c0,12,3.8,21.1,11.2,27.2c7.5,6.2,18.8,11.2,33.8,15.2l44.5,12
		c45,12,67.5,35.5,67.5,70.5c0,24.7-9.2,43.3-27.5,56C6150.1,1499.1,6127,1505.5,6099,1505.5z"/>
</g>
</svg>
