<?xml version="1.0" encoding="UTF-8"?>
<svg xmlns="http://www.w3.org/2000/svg" viewBox="0 0 14173.23 14173.23">
  <defs>
    <style>
      .cls-1, .cls-2 {
        fill: #fff;
      }

      .cls-2 {
        stroke: #231f20;
        stroke-miterlimit: 10;
      }
    </style>
  </defs>
  <g id="Layer_2" data-name="Layer 2">
    <rect class="cls-2" x="-1115.17" y="-1147.17" width="16437.33" height="16437.33"/>
  </g>
  <g id="Layer_1" data-name="Layer 1">
    <path d="m5783.39,5350.71c-120.2,216.56-238.32,431.05-357.48,646.57,148.17,258.01,296.34,516.01,444.52,774.02,10.36-5.18,13.47-14.51,16.58-21.76,83.93-156.46,167.86-313.96,250.75-470.42,23.83-44.56,47.66-89.11,71.5-133.67,1.04-3.11,3.11-5.18,4.14-8.29,4.14-6.22,5.18-16.58,14.51-16.58,10.36,0,11.4,9.33,15.54,15.54,32.12,61.13,64.24,123.3,97.4,184.44,102.58,195.84,205.16,392.71,307.74,588.54,91.18,173.04,181.33,347.12,272.51,520.16,86,164.75,172,329.5,258.01,494.25,92.22,176.15,184.44,352.3,276.66,527.41,126.41,241.43,252.83,481.82,378.2,723.25,120.2,230.03,240.39,459.02,360.59,689.05,119.16,226.92,238.32,453.84,356.44,680.76,10.36,19.69,19.69,38.34,30.05,58.03,2.07,5.18,4.14,10.36,7.25,17.61-6.22,2.07-10.36,4.14-15.54,4.14-19.69,1.04-39.37,2.07-59.06,2.07-107.76,1.04-214.49,2.07-322.25,4.14-96.36,1.04-192.73,3.11-289.09,5.18-128.49,2.07-255.93,4.14-384.42,6.22-128.49,2.07-255.93,4.14-384.42,6.22-127.45,2.07-253.86,4.14-381.31,6.22-128.49,2.07-255.93,4.14-384.42,6.22-121.23,2.07-242.46,4.14-363.7,6.22h-19.69c-91.18-165.79-181.33-332.61-272.51-499.43-91.18-167.86-182.37-334.68-273.55-502.54-91.18-166.82-181.33-332.61-273.55-501.51-10.36,8.29-13.47,18.65-18.65,27.98-84.97,157.5-168.9,315-253.86,472.49-177.18,330.54-354.37,662.11-532.59,992.65-5.18,10.36-11.4,20.72-17.61,31.09-7.25,0-14.51,1.04-20.72,1.04h-942.91c0-6.22-1.04-11.4,0-15.54,3.11-7.25,7.25-14.51,10.36-21.76,174.08-326.39,348.15-651.75,521.19-978.14,263.19-494.25,526.37-988.51,790.6-1482.76,80.82-152.32,162.68-304.63,243.5-457.99,5.18-9.33,8.29-20.72,16.58-25.9,10.36-1.04,13.47,6.22,16.58,11.4,30.05,49.74,61.13,100.51,91.18,150.24,36.27,59.06,72.53,119.16,107.76,178.22,4.14,6.22,9.33,12.43,12.43,18.65h4.14s2.07-1.04,2.07-2.07c160.61-285.98,321.21-571.97,482.85-858.98-23.83-43.52-47.66-87.04-70.46-130.56-23.83-44.56-48.7-89.11-72.53-133.67-23.83-43.52-47.66-87.04-71.5-130.56-23.83-43.52-47.66-87.04-71.5-130.56-23.83-44.56-47.66-89.11-72.53-133.67-23.83-43.52-46.63-87.04-72.53-132.63-6.22,10.36-10.36,16.58-14.51,23.83-242.46,456.95-485.96,913.9-728.43,1370.85-218.63,411.36-437.26,822.72-655.89,1234.08-218.63,411.36-437.26,822.72-655.89,1234.08-72.53,135.74-144.03,271.48-216.56,408.25-3.11,5.18-5.18,10.36-8.29,15.54-4.14,7.25-10.36,11.4-19.69,11.4h-131.59c-12.43,0-25.9-1.04-38.34-1.04h-379.24c-83.93,0-166.82,0-250.75-1.04-7.25,0-13.47,0-19.69-1.04-5.18-10.36,0-16.58,4.14-22.8,24.87-47.66,49.74-95.33,74.6-142.99,88.07-168.9,177.18-337.79,265.26-506.69,83.93-160.61,167.86-320.18,250.75-480.78,82.89-158.53,165.79-317.07,248.68-475.6,94.29-181.33,189.62-362.66,283.91-543.99,89.11-169.93,177.18-339.86,266.3-509.8,81.86-157.5,164.75-315,246.61-472.49,38.34-73.57,76.68-146.1,115.01-219.67,4.14-8.29,9.33-17.61,14.51-25.9,8.29-15.54,15.54-15.54,24.87,0,31.08,51.81,62.17,104.65,92.22,156.46,39.37,66.31,78.75,133.67,118.12,199.98,5.18,8.29,10.36,16.58,15.54,23.83h4.14s2.07,0,2.07-2.07c169.93-290.13,339.86-579.22,509.79-869.35,3.11-6.22,6.22-12.43,10.36-19.69-157.5-261.11-313.96-522.23-471.46-783.34-1.04-2.07-4.14-3.11-6.22-5.18h-4.14l-2.07,2.07s-1.04,2.07-2.07,2.07c-1.04,2.07-2.07,3.11-3.11,5.18,0,0,0,2.07-1.04,3.11,0,0,0,2.07-1.04,3.11-814.43,1554.25-1628.86,3109.54-2443.29,4663.8-1.04,3.11-3.11,5.18-4.14,8.29,0,2.07-2.07,3.11-3.11,5.18,0,0-1.04,2.07-2.07,2.07,0,0-1.04,1.04-2.07,2.07-32.12,4.14-465.24-2.07-495.29-7.25-6.22-16.58-3.11-31.09,5.18-46.63,51.81-98.44,103.62-196.87,155.43-295.31,97.4-185.47,194.8-370.95,292.2-556.42,116.05-221.74,233.14-443.48,349.19-665.22,135.74-259.04,271.48-519.12,408.25-778.16,119.16-227.96,239.35-455.91,358.51-683.87,104.65-198.94,208.27-397.89,312.92-596.83,109.83-208.27,218.63-416.54,328.47-625.85,104.65-198.94,208.27-397.89,312.92-596.83,109.83-208.27,218.63-416.54,328.47-624.81,120.2-228.99,239.35-457.99,359.55-685.94,103.62-197.91,207.23-395.82,311.89-593.72,38.34-73.57,77.71-148.17,116.05-221.74,3.11-6.22,4.14-14.51,12.43-15.54,10.36-1.04,12.43,8.29,15.54,14.51,59.06,107.76,117.09,216.56,176.15,325.36,175.11,324.32,351.26,647.61,526.37,971.93,54.92,101.54,109.83,203.09,164.75,303.6,4.14,7.25,7.25,14.51,11.4,22.8l4.14,3.11Zm-827.9-713.92c-11.4,10.36-15.54,20.72-20.72,30.05-78.75,135.74-156.46,271.48-234.17,408.25-98.44,169.93-195.84,340.9-294.27,510.83-6.22,10.36-13.47,19.69-15.54,33.16,146.1,237.28,292.2,476.64,439.34,714.96,0,1.04,3.11,2.07,8.29,4.14,47.66-78.75,94.29-157.5,141.96-236.25,46.63-78.75,94.29-156.46,140.92-235.21,47.66-78.75,95.33-158.53,142.99-237.28,47.66-78.75,95.33-157.5,141.96-237.28-150.24-251.79-300.49-502.54-451.77-756.4l1.04,1.04Z"/>
    <path d="m7255.79,5281.29c-18.65,32.12-35.23,64.24-52.84,95.33-139.88,248.68-278.73,497.36-418.61,746.04-5.18,8.29-9.33,17.61-14.51,25.9-3.11,5.18-11.4,5.18-15.54,0-5.18-7.25-9.33-14.51-14.51-22.8-92.22-161.64-185.47-324.32-277.69-487-25.9-45.59-51.81-91.18-77.71-136.77-4.14-7.25-7.25-13.47-11.4-21.76,4.14-9.33,9.33-17.61,13.47-26.94,157.5-285.98,316.03-571.97,473.53-857.95,4.14-7.25,7.25-14.51,12.43-20.72,2.07-3.11,6.22-4.14,10.36-7.25,124.34,238.32,248.68,474.57,374.06,712.88l-1.04,1.04Z"/>
    <path d="m6066.27,4806.72c-11.4-4.14-13.47-14.51-18.65-22.8-61.13-105.69-122.27-211.38-183.4-317.07-24.87-42.48-47.66-84.97-73.57-126.41-10.36-16.58-9.33-30.05,0-46.63,98.44-166.82,195.84-334.68,293.24-501.51,16.58-29.01,34.19-58.03,50.77-87.04,3.11-5.18,6.22-10.36,10.36-14.51,3.11-4.14,10.36-4.14,13.47,0,4.14,6.22,8.29,13.47,12.43,19.69,65.28,113.98,130.56,227.96,194.8,341.94,17.61,30.05,34.19,61.13,51.81,90.15,9.33,14.51,8.29,25.9,0,41.45-52.84,94.29-105.69,189.62-157.5,283.91-58.03,104.65-116.05,210.34-175.11,315-5.18,9.33-8.29,20.72-19.69,24.87l1.04-1.04Z"/>
    <path d="m7010.33,4326.51c-11.4-4.14-13.47-14.51-18.65-22.8-61.13-105.69-122.27-211.38-183.4-317.07-24.87-42.48-47.66-84.97-73.57-126.41-10.36-16.58-9.33-30.05,0-46.63,98.44-166.82,195.84-334.68,293.24-501.51,16.58-29.01,34.19-58.03,50.77-87.04,3.11-5.18,6.22-10.36,10.36-14.51,3.11-4.14,10.36-4.14,13.47,0,4.14,6.22,8.29,13.47,12.43,19.69,65.28,113.98,130.56,227.96,194.8,341.94,17.61,30.05,34.19,61.13,51.81,90.15,9.33,14.51,8.29,25.9,0,41.45-52.84,94.29-105.69,189.62-157.5,283.91-58.03,104.65-116.05,210.34-175.11,315-5.18,9.33-8.29,20.72-19.69,24.87l1.04-1.04Z"/>
    <path class="cls-1" d="m4955.49,4636.79c151.28,253.86,301.53,504.61,451.77,756.4-46.63,79.79-94.29,157.5-141.96,237.28-47.66,78.75-95.33,158.53-142.99,237.28-47.66,77.71-94.29,156.46-140.92,235.21-47.66,78.75-94.29,157.5-141.96,236.25-5.18-2.07-7.25-3.11-8.29-4.14-146.1-238.32-293.24-476.64-439.34-714.96,1.04-14.51,9.33-23.83,15.54-33.16,97.4-170.97,195.84-340.9,294.27-510.83,77.71-135.74,156.46-271.48,234.17-408.25,5.18-9.33,9.33-19.69,20.72-30.05l-1.04-1.04Z"/>
    <rect x="10523.2" y="5573.08" width="971.17" height="4384" rx="158.67" ry="158.67" transform="translate(3243.7 18773.87) rotate(-90)"/>
    <rect x="10523.2" y="5573.08" width="971.17" height="4384" rx="158.67" ry="158.67" transform="translate(22017.57 15530.17) rotate(-180)"/>
  </g>
</svg>